# xmcd
#
# Track frame offsets:
#	150
#	13459
#	28171
#	38564
#	48205
#	67207
#	85045
#	96972
#	112649
#	127466
#	138598
#	157173
#	177956
#	185860
#	194884
#	207257
#	214180
#	235829
#	251204
#	263375
#
# Disc length: 3716 seconds
#
# Revision: 0
# Processed by: cddbd v1.5.1PL2 Copyright (c) Steve Scherf et al.
# Submitted via: dBpowerAMP V4.0
#
DISCID=340e8214
DTITLE=Sampler - Scotlands Great Highland Bagpipes
DYEAR=1900
DGENRE=country
TTITLE0=2/4 Marches - Denny and Dunipace Pipes and Drums
TTITLE1=Slow Air and Jigs - Black Watch
TTITLE2=The Green Hills Of Tyrol - The Royal Scots Dragoon Guards
TTITLE3=March, Strathspey and Reel - Caledonian Heritage Pipes and Drums
TTITLE4=Walrus - Royal Irish Regiment
TTITLE5=The Banks Of The Lee - The Royal Scots Dragoon Guards
TTITLE6=Scots Wha Hae - Argyll and Sutherlands Highlanders
TTITLE7=Colin's Cattle - Black Watch
TTITLE8=Lochanside - The Royal Scots Dragoon Guards
TTITLE9=Amazing Grace - Denny and Dunipace Pipes and Drums
TTITLE10=Military Selection - Caledonian Heritage Pipes and Drums
TTITLE11=6/8 Selection - Black Watch
TTITLE12=Oft In The Stilly Night - Royal Irish Regiment
TTITLE13=Monymusk - Argyll and Sutherland Highlanders
TTITLE14=Strathspeys and Reels - Denny and Dunipace Pipes and Drums
TTITLE15=The Muckin' O' Geordie's Byre - The Royal Scots Dragoon Guards
TTITLE16=The Piper's Prayer - Black Watch
TTITLE17=Waltz Selection - Caledonian Heritage Pipes and Drums
TTITLE18=The Glendaruel Highlanders - The Royal Scots Dragoon Guards
TTITLE19=Auld Lang Syne - Caledonian Heritage Pipes and Drums
EXTD=
EXTT0=
EXTT1=
EXTT2=
EXTT3=
EXTT4=
EXTT5=
EXTT6=
EXTT7=
EXTT8=
EXTT9=
EXTT10=
EXTT11=
EXTT12=
EXTT13=
EXTT14=
EXTT15=
EXTT16=
EXTT17=
EXTT18=
EXTT19=
PLAYORDER=
